<svg xmlns="http://www.w3.org/2000/svg" xmlns:xlink="http://www.w3.org/1999/xlink" version="1.1" x="0px" y="0px" viewBox="0 0 90 112.5" enable-background="new 0 0 90 90" xml:space="preserve"><path d="M88.229,49.567c-0.323-0.447-3.678-5.022-9.162-10.254l7.185-7.188c1.304-1.3,1.304-3.411,0-4.708  c-1.297-1.303-3.408-1.303-4.709,0l-7.49,7.489c-2.617-2.111-5.524-4.177-8.685-5.978l4.829-7.978  c0.951-1.575,0.449-3.623-1.126-4.576c-1.574-0.955-3.623-0.447-4.574,1.125l-5.138,8.494c-2.979-1.216-6.116-2.129-9.372-2.605  v-9.61c0-1.839-1.491-3.333-3.333-3.333c-1.839,0-3.33,1.494-3.33,3.333v9.286c-4.452,0.22-8.708,1.308-12.687,2.93l-5.137-8.491  c-0.95-1.574-3-2.084-4.575-1.127c-1.573,0.953-2.077,3-1.125,4.576l4.829,7.978c-3.157,1.8-6.068,3.867-8.685,5.98l-7.492-7.492  c-1.3-1.303-3.411-1.303-4.711,0c-1.3,1.297-1.3,3.409,0,4.708l7.191,7.188c-5.486,5.231-8.84,9.807-9.164,10.254  c-0.737,1.023-0.737,2.401,0,3.427C2.554,54.079,21.213,79.555,45,79.555c23.788,0,42.445-25.476,43.23-26.561  C88.967,51.969,88.967,50.591,88.229,49.567z M45,71.129c-10.942,0-19.847-8.903-19.847-19.851c0-10.945,8.904-19.849,19.847-19.849  c10.946,0,19.851,8.904,19.851,19.849C64.851,62.226,55.945,71.129,45,71.129z M7.861,51.278  c2.797-3.438,9.755-11.306,18.835-16.739c-4.046,4.423-6.54,10.288-6.54,16.739c0,6.456,2.493,12.32,6.542,16.744  C17.62,62.588,10.659,54.721,7.861,51.278z M63.272,68.056c4.065-4.426,6.571-10.307,6.571-16.777  c0-6.451-2.493-12.315-6.539-16.739c9.081,5.438,16.04,13.306,18.836,16.744C79.345,54.729,72.379,62.62,63.272,68.056z"/><path d="M45.001,39.8c-0.811,0-1.598,0.083-2.359,0.246c1.669,1.093,2.776,2.972,2.776,5.114c0,3.382-2.739,6.119-6.119,6.119  c-2.302,0-4.282-1.282-5.326-3.16c-0.288,1.005-0.452,2.064-0.452,3.16c0,6.34,5.14,11.478,11.48,11.478  c6.337,0,11.478-5.138,11.478-11.478C56.479,44.94,51.339,39.8,45.001,39.8z"/></svg>