<svg xmlns="http://www.w3.org/2000/svg" xmlns:xlink="http://www.w3.org/1999/xlink" version="1.1" x="0px" y="0px" viewBox="0 0 263.1 139.375" style="enable-background:new 0 0 263.1 111.5;" xml:space="preserve"><path d="M259.9,29.9l-30.1-27c-0.7-0.6-1.5-1.2-2.4-1.6c-3.9-2.4-9.1-1.5-12.1,2c-9.8,11.5-45,49.2-83.8,49.2  c-38.9,0-74-37.6-83.8-49.2c-1.6-1.9-3.9-3.1-6.5-3.3c-2.5-0.2-5,0.6-6.9,2.2l0,0c-0.3,0.2-0.5,0.4-0.8,0.6l-30.1,27  c-3.9,3.5-4.4,9.4-1.2,13.3c1.8,2.2,4.5,3.5,7.3,3.5c2.3,0,4.6-0.9,6.3-2.4l21.7-19.4c1.2-1.1,3-1,4.2,0.2  c6.3,6.6,13,12.7,19.7,18.1c1.2,1,1.5,2.7,0.6,4L44.5,73.3c-2.9,4.4-1.7,10.3,2.6,13.2c1.6,1,3.4,1.6,5.3,1.6c3.2,0,6.1-1.6,7.9-4.2  l17.3-26c0.9-1.3,2.6-1.7,4-0.9c12.3,7,24.5,11.5,36.5,13.5c1.5,0.2,2.6,1.5,2.6,3v28.3c0,5.3,4.1,9.7,9.2,9.8c0.1,0,0.2,0,0.3,0  c2.5,0,4.8-0.9,6.6-2.7c1.9-1.8,2.9-4.2,2.9-6.8V73.7c0-1.5,1.1-2.8,2.7-3c11.3-1.5,23-5.4,34.6-11.5c1.4-0.8,3.2-0.3,4,1.1  l15.9,26.3c1.7,2.8,4.8,4.6,8.1,4.6c2.1,0,4.1-0.7,5.8-2c3.8-2.9,4.8-8.4,2.2-12.6l-16.1-26.7c-0.8-1.3-0.5-3,0.8-3.9  c8.1-6.1,16.1-13.3,23.7-21.2c1.1-1.2,3-1.2,4.2-0.2l21.8,19.6c1.7,1.6,4,2.4,6.3,2.4c2.8,0,5.5-1.3,7.3-3.5  C264.3,39.4,263.7,33.4,259.9,29.9z"/></svg>