<svg xmlns="http://www.w3.org/2000/svg" viewBox="0 0 36 45" x="0px" y="0px"><title>Монтажная область 35</title><path d="M22,33.38a8.61,8.61,0,0,0,.82-1l-.57-1.8a6.47,6.47,0,0,1-3.79,3.24v-6.6h2.71l-.24-.73-.23-.74H18.45V18.45h6.83c0,.69,0,1.38-.1,2l1.44.46c.08-.81.13-1.65.13-2.5h7.19A16.18,16.18,0,0,1,33.05,23l1.4.45a17.45,17.45,0,0,0,.95-5c0-.25,0-.49,0-.74s0-.49,0-.73a17.38,17.38,0,0,0-1.95-7.35,13.22,13.22,0,0,0-.83-1.47A17.71,17.71,0,0,0,18.45,0l-.74,0L17,0A17.71,17.71,0,0,0,2.8,8.16,13.22,13.22,0,0,0,2,9.63,17.38,17.38,0,0,0,0,17H0v1.47H0a17.62,17.62,0,0,0,2.34,8.08c.15.24.29.5.45.73A17.68,17.68,0,0,0,17,35.4l.73,0,.74,0a17.11,17.11,0,0,0,5-.95L23,33.05A10.24,10.24,0,0,1,22,33.38ZM33.92,17H26.76a31.36,31.36,0,0,0-1-7.35h6A16.07,16.07,0,0,1,33.92,17ZM30.84,8.16H25.38A15.62,15.62,0,0,0,22,2.05,16.3,16.3,0,0,1,30.84,8.16ZM18.45,1.55c2.16.47,4.1,3,5.35,6.61H18.45Zm0,8.08h5.8a30.23,30.23,0,0,1,1,7.35H18.45Zm-5-7.58A15.62,15.62,0,0,0,10,8.16H4.58A16.33,16.33,0,0,1,13.41,2.05ZM3.62,9.63h6a31.36,31.36,0,0,0-1,7.35H1.5A16.07,16.07,0,0,1,3.62,9.63ZM1.49,18.45H8.66a31.33,31.33,0,0,0,1,7.34h-6A15.94,15.94,0,0,1,1.49,18.45Zm3.1,8.81h5.46a15.48,15.48,0,0,0,3.38,6.12A16.23,16.23,0,0,1,4.59,27.26ZM17,33.86c-2.17-.48-4.1-3-5.35-6.6H17Zm0-8.07H11.17a30.15,30.15,0,0,1-1-7.34H17ZM17,17H10.13a30.23,30.23,0,0,1,1-7.35H17Zm0-8.82H11.62C12.87,4.54,14.81,2,17,1.55Z"/><path d="M35,25.11,23.07,21.27a1.46,1.46,0,0,0-1.47.33A1.4,1.4,0,0,0,21.26,23l3.85,12a1.44,1.44,0,0,0,1.35,1,1.4,1.4,0,0,0,1.31-.89L29,32l2.4,2.4a2.15,2.15,0,0,0,3,0,2.11,2.11,0,0,0,0-3L32,29l3.12-1.27A1.42,1.42,0,0,0,36,26.4,1.39,1.39,0,0,0,35,25.11Zm-4.58,3a.75.75,0,0,0-.44.54.7.7,0,0,0,.2.66l3.18,3.19a.63.63,0,0,1,0,.89.61.61,0,0,1-.44.18.58.58,0,0,1-.44-.19l-3.2-3.18a.73.73,0,0,0-.66-.2.75.75,0,0,0-.54.44l-1.63,4L22.69,22.69l11.74,3.77Z"/><text x="0" y="51" fill="#000000" font-size="5px" font-weight="bold" font-family="'Helvetica Neue', Helvetica, Arial-Unicode, Arial, Sans-serif">Created by Chintuza</text><text x="0" y="56" fill="#000000" font-size="5px" font-weight="bold" font-family="'Helvetica Neue', Helvetica, Arial-Unicode, Arial, Sans-serif">from the Noun Project</text></svg>