<svg xmlns="http://www.w3.org/2000/svg" data-name="Layer 1" viewBox="0 0 100 125" x="0px" y="0px"><title>72</title><g data-name="Group"><path data-name="Path" d="M74.5,40.1a3,3,0,0,0,4.2-.1l9.5-10a3,3,0,0,0,0-4.1l-9.5-10A3,3,0,1,0,74.4,20l4.7,5a26.9,26.9,0,0,0-17.3,7.2L47,45.9,32.2,32.2A26.9,26.9,0,0,0,13.9,25H12.5v6h1.4a20.9,20.9,0,0,1,14.3,5.6L42.6,50,28.1,63.4A20.9,20.9,0,0,1,13.9,69H12.5v6h1.4a26.9,26.9,0,0,0,18.4-7.2L47,54.1,61.8,67.8A26.9,26.9,0,0,0,79.2,75l-4.7,5a3,3,0,1,0,4.3,4.1l9.5-10a3,3,0,0,0,0-4.1L78.8,60a3,3,0,1,0-4.3,4.1L79.1,69a20.9,20.9,0,0,1-13.2-5.6L51.4,50,65.9,36.6A20.9,20.9,0,0,1,79.1,31l-4.6,4.9A3,3,0,0,0,74.5,40.1Z"/></g></svg>