<svg xmlns="http://www.w3.org/2000/svg" data-name="Layer 1" viewBox="0 0 100 125" x="0px" y="0px"><title>icons</title><path d="M29.84,59.77A11.25,11.25,0,0,1,25,61a12,12,0,1,1,0-24v0a13,13,0,0,1,3.82.61,23.28,23.28,0,0,1,6.62-8.13A24,24,0,0,0,25,27v0a22,22,0,1,0,0,44,22.38,22.38,0,0,0,12.06-3.82A23.31,23.31,0,0,1,29.84,59.77Z"/><path d="M50,40.88a70.19,70.19,0,0,0-8.91-8,17.23,17.23,0,0,0-6.88,7.37,57.18,57.18,0,0,1,9,7.93,89.5,89.5,0,0,1-8.32,8.23,17.22,17.22,0,0,0,7.43,6.79A101.89,101.89,0,0,0,50,55.58,104.46,104.46,0,0,0,57.43,63a17.24,17.24,0,0,0,7.19-7,95.32,95.32,0,0,1-7.81-7.79,60,60,0,0,1,8.39-7.52,17.22,17.22,0,0,0-6.65-7.52A71.63,71.63,0,0,0,50,40.88Z"/><path d="M75,27h0a24.2,24.2,0,0,0-10.92,2.72,23.27,23.27,0,0,1,6.42,8.11A13.33,13.33,0,0,1,75,37h0a12,12,0,1,1,0,24h0a11.71,11.71,0,0,1-5.45-1.52,23.31,23.31,0,0,1-7,7.45A22.62,22.62,0,0,0,75,71h0a22,22,0,1,0,0-44Z"/></svg>