<svg xmlns="http://www.w3.org/2000/svg" xmlns:xlink="http://www.w3.org/1999/xlink" xml:space="preserve" version="1.1" style="shape-rendering:geometricPrecision;text-rendering:geometricPrecision;image-rendering:optimizeQuality;" viewBox="0 0 847 1058.75" x="0px" y="0px" fill-rule="evenodd" clip-rule="evenodd"><defs><style type="text/css">
   
    .fil0 {fill:black}
   
  </style></defs><g><path d="M258 835l-107 0c-20,0 -37,-16 -37,-37l0 -750c0,-20 17,-37 37,-37l107 0c20,0 37,17 37,37l0 750c0,21 -17,37 -37,37zm438 0l-107 0c-21,0 -37,-16 -37,-37l0 -750c0,-20 16,-37 37,-37l107 0c20,0 37,17 37,37l0 750c0,21 -17,37 -37,37z"/></g></svg>