<svg xmlns="http://www.w3.org/2000/svg" xmlns:xlink="http://www.w3.org/1999/xlink" xml:space="preserve" style="shape-rendering:geometricPrecision;text-rendering:geometricPrecision;image-rendering:optimizeQuality;" viewBox="0 0 6827 8533.75" x="0px" y="0px"  clip-rule="evenodd"><defs></defs><g><g><path d="M2898 3346l2943 -2243c14,-12 33,-20 53,-20 44,0 80,36 80,80l0 779c0,24 -11,49 -32,65l-48 -64 48 64 -1863 1408 1859 1405c21,14 35,39 35,66l0 779c0,17 -5,34 -16,49 -27,35 -77,42 -112,15l0 0 -2942 -2252c-7,-5 -14,-11 -20,-18 -27,-35 -20,-85 15,-112l0 0z"/><path d="M885 3346l2943 -2243c14,-12 33,-20 53,-20 44,0 80,36 80,80l0 779c0,24 -11,49 -32,65l-48 -64 48 64 -1863 1408 1859 1405c21,14 35,39 35,66l0 779c0,17 -5,34 -16,49 -27,35 -77,42 -112,15l0 0 -2942 -2252c-7,-5 -14,-11 -20,-18 -27,-35 -20,-85 15,-112l0 0z"/></g></g></svg>