<svg xmlns="http://www.w3.org/2000/svg" xmlns:xlink="http://www.w3.org/1999/xlink" xml:space="preserve" style="shape-rendering:geometricPrecision;text-rendering:geometricPrecision;image-rendering:optimizeQuality;" viewBox="0 0 6827 8533.75" x="0px" y="0px" fill-rule="evenodd" clip-rule="evenodd"><defs></defs><g><g><path d="M986 1102l2943 2243 0 0c35,27 42,77 15,112 -6,7 -12,14 -20,18l-2942 2252 0 0c-35,27 -85,20 -112,-15 -11,-15 -16,-32 -16,-49l0 -779c0,-28 14,-52 35,-66l1859 -1405 -1863 -1408 48 -64 -48 64c-21,-16 -32,-40 -32,-65l0 -779c0,-44 36,-80 80,-80 20,0 39,7 53,20z"/><path d="M2999 1102l2943 2243 0 0c35,27 42,77 15,112 -6,7 -12,14 -20,18l-2942 2252 0 0c-35,27 -85,20 -112,-15 -11,-15 -16,-32 -16,-49l0 -779c0,-28 14,-52 35,-66l1859 -1405 -1863 -1408 48 -64 -48 64c-21,-16 -32,-40 -32,-65l0 -779c0,-44 36,-80 80,-80 20,0 39,7 53,20z"/></g></g></svg>